<?xml version="1.0" encoding="utf-8"?>
<!-- Generator: Adobe Illustrator 23.0.3, SVG Export Plug-In . SVG Version: 6.00 Build 0)  -->
<svg version="1.1" id="Layer_1" xmlns="http://www.w3.org/2000/svg" xmlns:xlink="http://www.w3.org/1999/xlink" x="0px" y="0px"
	 width="42px" height="42px" viewBox="0 0 42 42" enable-background="new 0 0 42 42" xml:space="preserve">
<g>
	<g>
		<g>
			<circle fill="#00274C" cx="21" cy="21" r="18.2511"/>
			<path fill="#587ABC" d="M21,2.7489c10.0798,0,18.2511,8.1713,18.2511,18.2511S31.0798,39.2511,21,39.2511
				S2.7489,31.0798,2.7489,21S10.9202,2.7489,21,2.7489 M21,0C9.4206,0,0,9.4206,0,21s9.4206,21,21,21s21-9.4206,21-21
				S32.5794,0,21,0L21,0z"/>
		</g>
	</g>
	<g>
		<g>
			<path fill="#FFFFFF" d="M25.7631,27.0594c0.07-0.3422,0.2066-0.6602,0.3955-0.9398
				C25.9697,26.3992,25.8331,26.7172,25.7631,27.0594z"/>
			<path fill="#FFFFFF" d="M30.5177,26.1195c0.1889,0.2797,0.3255,0.5976,0.3955,0.9398
				C30.8432,26.7172,30.7066,26.3992,30.5177,26.1195z"/>
			<path fill="#FFFFFF" d="M15.0986,25.7305c-0.4757-0.4757-1.1327-0.7699-1.8586-0.7699c-0.7258,0-1.3829,0.2942-1.8586,0.7699
				c0.4757-0.4756,1.1328-0.7698,1.8586-0.7698C13.9659,24.9607,14.623,25.2549,15.0986,25.7305z"/>
			<path fill="#FFFFFF" d="M30.1968,25.7305c-0.4757-0.4757-1.1327-0.7699-1.8586-0.7699c-0.7258,0-1.3829,0.2942-1.8586,0.7699
				c0.4757-0.4756,1.1328-0.7698,1.8586-0.7698C29.064,24.9607,29.7211,25.2549,30.1968,25.7305z"/>
			<path fill="#FFFFFF" d="M15.4196,26.1195c0.1889,0.2797,0.3255,0.5976,0.3955,0.9398
				C15.7451,26.7172,15.6085,26.3992,15.4196,26.1195z"/>
			<path fill="#FFFFFF" d="M10.665,27.0594c0.07-0.3422,0.2066-0.6602,0.3955-0.9398C10.8716,26.3992,10.735,26.7172,10.665,27.0594
				z"/>
			<path fill="#FFFFFF" d="M33.2271,25.5647h-0.1219c0.2884-0.6246,0.3175-1.3732-0.0624-2.059l-4.8237-8.7096
				c-0.2916-0.5264-0.8458-0.8531-1.4476-0.8531H10.6282c-1.0831,0-1.9611,0.878-1.9611,1.9612v9.682
				c-0.4635,0.0553-0.831,0.4375-0.831,0.9153c0,0.5152,0.4215,0.9368,0.9367,0.9368h0.6943
				c0.0812-2.0176,1.7358-3.6373,3.7729-3.6373s3.6917,1.6198,3.7729,3.6373h7.5524c0.0812-2.0176,1.7358-3.6373,3.7729-3.6373
				s3.6917,1.6198,3.7729,3.6373h1.116c0.5153,0,0.9368-0.4216,0.9368-0.9368S33.7424,25.5647,33.2271,25.5647z M13.1854,22.2154
				c-1.8584,0-3.365-1.5066-3.365-3.365c0-1.8584,1.5065-3.365,3.365-3.365s3.365,1.5066,3.365,3.365
				C16.5504,20.7088,15.0438,22.2154,13.1854,22.2154z M28.3962,21.6214h-5.7418v-5.3566c0-0.6196,0.5022-1.1217,1.1217-1.1217
				h2.1794c0.3442,0,0.6612,0.1869,0.828,0.4879l2.675,4.6276C29.9421,21.1319,29.3946,21.6214,28.3962,21.6214z"/>
			<polygon fill="#FFFFFF" points="13.9205,16.1014 12.45,16.1014 12.45,18.1149 10.4364,18.1149 10.4364,19.2061 10.4364,19.5854 
				12.45,19.5854 12.45,21.5993 13.9205,21.5993 13.9205,19.5854 15.9344,19.5854 15.9344,19.2061 15.9344,18.1149 13.9205,18.1149 
							"/>
			<path fill="#FFFFFF" d="M15.8532,27.4383c-0.0074-0.1279-0.0131-0.2565-0.0382-0.3789c-0.07-0.3422-0.2066-0.6602-0.3955-0.9398
				c-0.0944-0.1398-0.2021-0.2701-0.3209-0.389c-0.4757-0.4756-1.1327-0.7698-1.8586-0.7698c-0.7258,0-1.3829,0.2942-1.8586,0.7698
				c-0.1189,0.1189-0.2264,0.2492-0.3209,0.389c-0.1889,0.2797-0.3255,0.5976-0.3955,0.9398
				c-0.0251,0.1224-0.0308,0.251-0.0382,0.3789c-0.003,0.051-0.0152,0.0992-0.0152,0.1508c0,1.4517,1.1767,2.6284,2.6284,2.6284
				s2.6284-1.1767,2.6284-2.6284C15.8685,27.5374,15.8562,27.4892,15.8532,27.4383z"/>
			<path fill="#FFFFFF" d="M30.9514,27.4383c-0.0074-0.1279-0.0131-0.2565-0.0382-0.3789c-0.07-0.3422-0.2066-0.6602-0.3955-0.9398
				c-0.0944-0.1398-0.2021-0.2701-0.3209-0.389c-0.4757-0.4756-1.1327-0.7698-1.8586-0.7698c-0.7258,0-1.3829,0.2942-1.8586,0.7698
				c-0.1189,0.1189-0.2264,0.2492-0.3209,0.389c-0.1889,0.2797-0.3255,0.5976-0.3955,0.9398
				c-0.0251,0.1224-0.0308,0.251-0.0382,0.3789c-0.003,0.051-0.0152,0.0992-0.0152,0.1508c0,1.4517,1.1767,2.6284,2.6284,2.6284
				c1.4517,0,2.6284-1.1767,2.6284-2.6284C30.9666,27.5374,30.9543,27.4892,30.9514,27.4383z"/>
		</g>
		<g>
			<path fill="#FFFFFF" d="M21.5843,11.7825c-0.5905,0-1.0692,0.7295-1.0692,1.6294h2.1386
				C22.6536,12.512,22.1749,11.7825,21.5843,11.7825z"/>
		</g>
	</g>
</g>
</svg>
