<?xml version="1.0" encoding="utf-8"?>
<!-- Generator: Adobe Illustrator 23.0.6, SVG Export Plug-In . SVG Version: 6.00 Build 0)  -->
<svg version="1.1" id="Layer_1" xmlns="http://www.w3.org/2000/svg" xmlns:xlink="http://www.w3.org/1999/xlink" x="0px" y="0px"
	 width="35px" height="35px" viewBox="0 0 35 35" enable-background="new 0 0 35 35" xml:space="preserve">
<g>
	<g>
		<g>
			<circle fill="#00274C" cx="17.5" cy="17.5" r="15.2000008"/>
			<path fill="#587ABC" d="M17.5,2.3C25.8999996,2.3,32.7000008,9.1000004,32.7000008,17.5S25.9000015,32.7000008,17.5,32.7000008
				S2.3,25.8999996,2.3,17.5S9.1000004,2.3,17.5,2.3 M17.5,0C7.9000001,0,0,7.9000001,0,17.5S7.9000001,35,17.5,35
				S35,27.1000004,35,17.5S27.1000004,0,17.5,0L17.5,0z"/>
		</g>
	</g>
	<g>
		<g>
			<path fill="#FFFFFF" d="M21.5,22.5c0.1000004-0.2999992,0.2000008-0.6000004,0.2999992-0.7999992
				C21.6000004,22,21.5,22.2999992,21.5,22.5z"/>
			<path fill="#FFFFFF" d="M25.3999996,21.7999992c0.2000008,0.2000008,0.2999992,0.5,0.2999992,0.7999992
				C25.7000008,22.2999992,25.6000004,22,25.3999996,21.7999992z"/>
			<path fill="#FFFFFF" d="M12.6000004,21.3999996c-0.3999996-0.3999996-0.8999996-0.6000004-1.5-0.6000004
				S9.9000006,21,9.6000004,21.3999996C10,21,10.5,20.7999992,11.1000004,20.7999992
				C11.6000004,20.7999992,12.1999998,21,12.6000004,21.3999996z"/>
			<path fill="#FFFFFF" d="M25.2000008,21.3999996c-0.3999996-0.3999996-0.8999996-0.6000004-1.5-0.6000004
				S22.5,21,22.2000008,21.3999996c0.3999996-0.3999996,0.8999996-0.6000004,1.5-0.6000004S24.7999992,21,25.2000008,21.3999996z"/>
			<path fill="#FFFFFF" d="M12.8000002,21.7999992C13,22,13.1000004,22.2999992,13.1000004,22.5999985
				C13.1000004,22.2999992,13,22,12.8000002,21.7999992z"/>
			<path fill="#FFFFFF" d="M8.8999996,22.5C9,22.2000008,9.0999994,21.8999996,9.1999998,21.7000008
				C9.1000004,22,8.8999996,22.2999992,8.8999996,22.5z"/>
			<path fill="#FFFFFF" d="M27.7000008,21.2999992h-0.1000004c0.2000008-0.5,0.2999992-1.1000004-0.1000004-1.7000008l-4-7.3000002
				c-0.2000008-0.3999996-0.7000008-0.6999998-1.2000008-0.6999998H8.8999996c-0.9000001,0-1.5999999,0.6999998-1.5999999,1.6000004
				v8.1000004c-0.4000001,0-0.6999998,0.3999996-0.6999998,0.7999992S7,22.8999977,7.4000001,22.8999977H8
				c0.1000004-1.7000008,1.3999996-3,3.1000004-3s3.1000004,1.2999992,3.1000004,3H20.5
				c0.1000004-1.7000008,1.3999996-3,3.1000004-3s3.1000004,1.2999992,3.1000004,3h0.8999996
				c0.3999996,0,0.7999992-0.3999996,0.7999992-0.7999992S28.1000004,21.2999992,27.7000008,21.2999992z M11,18.5
				c-1.5,0-2.8000002-1.2999992-2.8000002-2.8000002S9.5,12.8999996,11,12.8999996s2.8000002,1.3000002,2.8000002,2.8000002
				C13.8000002,17.2999992,12.5,18.5,11,18.5z M23.7000008,18h-4.7999992v-4.5c0-0.5,0.3999996-0.8999996,0.8999996-0.8999996
				h1.7999992c0.2999992,0,0.6000004,0.1999998,0.7000008,0.3999996l2.2000008,3.8999996C25,17.6000004,24.5,18,23.7000008,18z"/>
			<polygon fill="#FFFFFF" points="11.6000004,13.3999996 10.3999996,13.3999996 10.3999996,15.1000004 8.6999998,15.1000004 
				8.6999998,16 8.6999998,16.2999992 10.3999996,16.2999992 10.3999996,18 11.6000004,18 11.6000004,16.2999992 
				13.3000002,16.2999992 13.3000002,16 13.3000002,15.1000004 11.6000004,15.1000004 			"/>
			<path fill="#FFFFFF" d="M13.1999998,22.8999996c0-0.1000004,0-0.2000008,0-0.2999992
				C13.0999994,22.3000011,13,22,12.8999996,21.8000011c-0.1000004-0.1000004-0.1999998-0.2000008-0.3000002-0.2999992
				c-0.3999996-0.3999996-0.8999996-0.6000004-1.5-0.6000004s-1.1999998,0.2000008-1.5,0.6000004
				c-0.1000004,0.1000004-0.1999998,0.2000008-0.3000002,0.2999992c-0.1999998,0.2000008-0.3000002,0.5-0.3000002,0.7999992
				c0,0.1000004,0,0.2000008,0,0.2999992V23c0,1.2000008,1,2.2000008,2.1999998,2.2000008s2.1999998-1,2.1999998-2.2000008
				C13.1999998,22.8999996,13.1999998,22.8999996,13.1999998,22.8999996z"/>
			<path fill="#FFFFFF" d="M25.7999992,22.8999996c0-0.1000004,0-0.2000008,0-0.2999992
				C25.6999989,22.3000011,25.5999985,22,25.5,21.8000011c-0.1000004-0.1000004-0.2000008-0.2000008-0.2999992-0.2999992
				c-0.3999996-0.3999996-0.8999996-0.6000004-1.5-0.6000004s-1.2000008,0.2000008-1.5,0.6000004
				C22.1000004,21.6000023,22,21.7000027,21.9000015,21.8000011c-0.2000008,0.2000008-0.2999992,0.5-0.2999992,0.7999992
				c0,0.1000004,0,0.2000008,0,0.2999992V23c0,1.2000008,1,2.2000008,2.2000008,2.2000008s2.2000008-1,2.2000008-2.2000008
				C25.7999992,22.8999996,25.7999992,22.8999996,25.7999992,22.8999996z"/>
		</g>
		<g>
			<path fill="#FFFFFF" d="M18,9.8000002c-0.5,0-0.8999996,0.6000004-0.8999996,1.3999996h1.7999992
				C18.8999996,10.3999996,18.5,9.8000002,18,9.8000002z"/>
		</g>
	</g>
</g>
</svg>
