<?xml version="1.0" encoding="utf-8"?>
<!-- Generator: Adobe Illustrator 23.0.6, SVG Export Plug-In . SVG Version: 6.00 Build 0)  -->
<svg version="1.1" id="Layer_1" xmlns="http://www.w3.org/2000/svg" xmlns:xlink="http://www.w3.org/1999/xlink" x="0px" y="0px"
	 width="35px" height="35px" viewBox="0 0 35 35" enable-background="new 0 0 35 35" xml:space="preserve">
<g>
	<g>
		<g>
			<circle fill="#00274C" cx="17.5" cy="17.5" r="15.2"/>
			<path fill="#587ABC" d="M17.5,2.3c8.4,0,15.2,6.8,15.2,15.2s-6.8,15.2-15.2,15.2S2.3,25.9,2.3,17.5S9.1,2.3,17.5,2.3 M17.5,0
				C7.9,0,0,7.9,0,17.5S7.9,35,17.5,35S35,27.1,35,17.5S27.1,0,17.5,0L17.5,0z"/>
		</g>
	</g>
	<g>
		<path fill="#FFFFFF" d="M25.3,14.1h-3.2V24h7.5v-9.9H25.3z M25.1,22.9h-1.2v-1.2h1.2C25.1,21.7,25.1,22.9,25.1,22.9z M25.1,20.7
			h-1.2v-1.2h1.2V20.7z M25.1,18.5h-1.2v-1.2h1.2C25.1,17.2,25.1,18.5,25.1,18.5z M25.1,16.2h-1.2V15h1.2V16.2z M27.8,22.9h-1.2
			v-1.2h1.2V22.9z M27.8,20.7h-1.2v-1.2h1.2V20.7z M27.8,18.5h-1.2v-1.2h1.2V18.5z M27.8,16.2h-1.2V15h1.2V16.2z"/>
		<path fill="#FFFFFF" d="M5.4,14.1V24h7.5v-9.9H8.7H5.4z M8.4,22.9H7.2v-1.2h1.2V22.9z M8.4,20.7H7.2v-1.2h1.2V20.7z M8.4,18.5H7.2
			v-1.2h1.2V18.5z M8.4,16.2H7.2V15h1.2V16.2z M9.9,15h1.2v1.2H9.9V15z M9.9,17.2h1.2v1.2H9.9V17.2z M9.9,19.5h1.2v1.2H9.9V19.5z
			 M9.9,21.7h1.2v1.2H9.9V21.7z"/>
		<g>
			<path fill="#FFFFFF" d="M15,11h-1v1v3v9h1.8h0.5v-2.5c0-0.3,0.2-0.5,0.5-0.5h1.3c0.3,0,0.5,0.2,0.5,0.5V24h0.5H21v-9v-3v-1h-1H15
				z M20.6,15c-0.2,1.6-1.5,2.8-3.1,2.8s-2.9-1.2-3.1-2.8c0-0.1,0-0.2,0-0.3c0-1.7,1.4-3.1,3.1-3.1s3.1,1.4,3.1,3.1
				C20.6,14.8,20.6,14.9,20.6,15z"/>
			<polygon fill="#FFFFFF" points="18.2,12.2 16.8,12.2 16.8,14.1 15,14.1 15,15 15,15.4 16.8,15.4 16.8,17.2 18.2,17.2 18.2,15.4 
				20,15.4 20,15 20,14.1 18.2,14.1 			"/>
		</g>
	</g>
</g>
</svg>
