<?xml version="1.0" encoding="utf-8"?>
<!-- Generator: Adobe Illustrator 23.0.3, SVG Export Plug-In . SVG Version: 6.00 Build 0)  -->
<svg version="1.1" id="Layer_1" xmlns="http://www.w3.org/2000/svg" xmlns:xlink="http://www.w3.org/1999/xlink" x="0px" y="0px"
	 width="42px" height="42px" viewBox="0 0 42 42" enable-background="new 0 0 42 42" xml:space="preserve">
<g>
	<g>
		<g>
			<circle fill="#00274C" cx="21" cy="21" r="18.2511"/>
			<path fill="#587ABC" d="M21,2.7489c10.0798,0,18.2511,8.1713,18.2511,18.2511S31.0798,39.2511,21,39.2511
				S2.7489,31.0798,2.7489,21S10.9202,2.7489,21,2.7489 M21,0C9.4206,0,0,9.4206,0,21s9.4206,21,21,21s21-9.4206,21-21
				S32.5794,0,21,0L21,0z"/>
		</g>
	</g>
	<g>
		<path fill="#FFFFFF" d="M30.3523,16.9722h-3.8783v11.8524h8.9908V16.9722H30.3523z M30.0787,27.5076H28.621v-1.4577h1.4577
			V27.5076z M30.0787,24.8285H28.621V23.371h1.4577V24.8285z M30.0787,22.1496H28.621v-1.4577h1.4577V22.1496z M30.0787,19.4706
			H28.621v-1.4577h1.4577V19.4706z M33.3179,27.5076h-1.4575v-1.4577h1.4575V27.5076z M33.3179,24.8285h-1.4575V23.371h1.4575
			V24.8285z M33.3179,22.1496h-1.4575v-1.4577h1.4575V22.1496z M33.3179,19.4706h-1.4575v-1.4577h1.4575V19.4706z"/>
		<path fill="#FFFFFF" d="M6.5351,16.9722v11.8524h8.9908V16.9722h-5.1126H6.5351z M10.1397,27.5076H8.682v-1.4577h1.4577V27.5076z
			 M10.1397,24.8285H8.682V23.371h1.4577V24.8285z M10.1397,22.1495H8.682v-1.4577h1.4577V22.1495z M10.1397,19.4706H8.682v-1.4577
			h1.4577V19.4706z M11.9213,18.0129h1.4577v1.4577h-1.4577V18.0129z M11.9213,20.6919h1.4577v1.4577h-1.4577V20.6919z
			 M11.9213,23.371h1.4577v1.4575h-1.4577V23.371z M11.9213,26.0499h1.4577v1.4577h-1.4577V26.0499z"/>
		<g>
			<path fill="#FFFFFF" d="M18.003,13.1754h-1.2506v1.2506v3.6173v10.7812h2.1685h0.6585v-3.009
				c0-0.3526,0.2858-0.6384,0.6384-0.6384h1.5643c0.3526,0,0.6384,0.2858,0.6384,0.6384v3.009h0.6585h2.1685V18.0433V14.426v-1.2506
				H23.997H18.003z M24.6857,18.0433c-0.1945,1.8738-1.7603,3.3406-3.6856,3.3406c-1.9256,0-3.4912-1.4668-3.6858-3.3406
				c-0.0132-0.128-0.0387-0.2522-0.0387-0.3837c0-2.0568,1.6675-3.7243,3.7245-3.7243c2.0568,0,3.7241,1.6675,3.7241,3.7243
				C24.7242,17.7911,24.6989,17.9153,24.6857,18.0433z"/>
			<polygon fill="#FFFFFF" points="21.7926,14.6954 20.2069,14.6954 20.2069,16.8666 18.0357,16.8666 18.0357,18.0435 
				18.0357,18.4525 20.2069,18.4525 20.2069,20.6242 21.7926,20.6242 21.7926,18.4525 23.9643,18.4525 23.9643,18.0435 
				23.9643,16.8666 21.7926,16.8666 			"/>
		</g>
	</g>
</g>
</svg>
