<?xml version="1.0" encoding="utf-8"?>
<!-- Generator: Adobe Illustrator 23.0.3, SVG Export Plug-In . SVG Version: 6.00 Build 0)  -->
<svg version="1.1" id="Layer_1" xmlns="http://www.w3.org/2000/svg" xmlns:xlink="http://www.w3.org/1999/xlink" x="0px" y="0px"
	 width="42px" height="42px" viewBox="0 0 42 42" enable-background="new 0 0 42 42" xml:space="preserve">
<g>
	<circle fill="#00274C" cx="21" cy="21" r="18.2511"/>
	<path fill="#587ABC" d="M21,2.7489c10.0798,0,18.2511,8.1713,18.2511,18.2511S31.0798,39.2511,21,39.2511S2.7489,31.0798,2.7489,21
		S10.9202,2.7489,21,2.7489 M21,0C9.4206,0,0,9.4206,0,21s9.4206,21,21,21s21-9.4206,21-21S32.5794,0,21,0L21,0z"/>
</g>
<rect x="15.035" y="21.7906" fill="#FFFFFF" width="11.8471" height="2.2817"/>
<g>
	<g>
		<g>
			<path fill="#FFFFFF" d="M36.208,19.8033H5.7092c-0.4587,0-0.6057,0.6178-0.196,0.8243l2.2142,1.1163
				c0.0608,0.0306,0.1279,0.0466,0.196,0.0466h8.7141v7.949h-0.064c-0.0229,0-0.0455,0.0159-0.066,0.0466l-0.7449,1.1163
				c-0.1378,0.2065-0.0884,0.8243,0.066,0.8243h10.26c0.1543,0,0.2037-0.6178,0.066-0.8243l-0.7449-1.1163
				c-0.0204-0.0307-0.043-0.0466-0.0659-0.0466h-0.064v-7.949h8.7141c0.0681,0,0.1352-0.016,0.196-0.0466l2.2142-1.1163
				C36.8136,20.4211,36.6667,19.8033,36.208,19.8033z M22.9076,29.1166h-3.8981c-0.1682,0-0.3057-0.1376-0.3057-0.3057
				s0.1376-0.3057,0.3057-0.3057h3.8981c0.1682,0,0.3057,0.1376,0.3057,0.3057S23.0758,29.1166,22.9076,29.1166z"/>
		</g>
		<g>
			<path fill="#FFFFFF" d="M34.1654,15.3738H11.2535c0.3222,0.5722,0.5238,1.2949,0.5238,2.0921v0.4853
				c0,0.3414-0.0457,0.6644-0.1116,0.9746h23.4935c0.0476,0,0.0922,0.0157,0.1389,0.0205v-1.9165
				C35.2981,16.1191,34.7884,15.3738,34.1654,15.3738z"/>
			<path fill="#FFFFFF" d="M10.4021,18.9258c0.1424-0.2768,0.2426-0.6035,0.2426-0.9746V17.466c0-0.9108-0.5097-1.656-1.1326-1.656
				H7.7624H7.7517c-0.6229,0-1.1326,0.7452-1.1326,1.656v0.4853c0,0.3799,0.1035,0.7148,0.2521,0.9951h3.518
				C10.3931,18.9389,10.3982,18.9333,10.4021,18.9258z"/>
		</g>
	</g>
	<rect x="17.3981" y="26.2608" fill="#FFFFFF" width="5.8777" height="3.8981"/>
</g>
</svg>
