<?xml version="1.0" encoding="utf-8"?>
<!-- Generator: Adobe Illustrator 23.0.6, SVG Export Plug-In . SVG Version: 6.00 Build 0)  -->
<svg version="1.1" id="Layer_1" xmlns="http://www.w3.org/2000/svg" xmlns:xlink="http://www.w3.org/1999/xlink" x="0px" y="0px"
	 width="35px" height="35px" viewBox="0 0 35 35" enable-background="new 0 0 35 35" xml:space="preserve">
<g>
	<circle fill="#00274C" cx="17.5" cy="17.5" r="15.2"/>
	<path fill="#587ABC" d="M17.5,2.3c8.4,0,15.2,6.8,15.2,15.2s-6.8,15.2-15.2,15.2S2.3,25.9,2.3,17.5S9.1,2.3,17.5,2.3 M17.5,0
		C7.9,0,0,7.9,0,17.5S7.9,35,17.5,35S35,27.1,35,17.5S27.1,0,17.5,0L17.5,0z"/>
</g>
<g>
	<path fill="#FFFFFF" d="M30.2,16.5H4.8c-0.4,0-0.5,0.5-0.2,0.7l1.8,0.9c0.1,0,0.1,0,0.2,0h7.3l0,0h-1.3V20h1.3v4.7h-0.1
		c0,0,0,0-0.1,0l-0.6,0.9c-0.1,0.2-0.1,0.7,0.1,0.7h8.6c0.1,0,0.2-0.5,0.1-0.7l-0.6-0.9c0,0,0,0-0.1,0h-0.1V20h1.3v-1.9h-1.3l0,0
		h7.3c0.1,0,0.1,0,0.2,0l1.8-0.9C30.7,17,30.6,16.5,30.2,16.5z"/>
	<path fill="#FFFFFF" d="M9.8,15c0,0.3,0,0.6-0.1,0.8h19.6h0.1v-1.6c0-0.8-0.4-1.4-0.9-1.4H9.4c0.3,0.5,0.4,1.1,0.4,1.7
		C9.8,14.5,9.8,15,9.8,15z"/>
	<path fill="#FFFFFF" d="M8.7,15.8L8.7,15.8c0.1-0.2,0.2-0.5,0.2-0.8v-0.4c0-0.8-0.4-1.4-0.9-1.4H6.5l0,0c-0.5,0-0.9,0.6-0.9,1.4V15
		c0,0.3,0.1,0.6,0.2,0.8H8.7z"/>
</g>
</svg>
